PathFileType	4	(X/Y/Z)	S1_rest_fast_right.trc
DataRate	CameraRate	NumFrames	NumMarkers	Units	OrigDataRate	OrigDataStartFrame	OrigNumFrames
250.00	250.00	21	18	mm	250.00	8105	21613
Frame#	Time	c7	r_should	l_should	clavicle	r_upa	r_elb_l	r_elb_m	r_low	r_wri_l	r_wri_m	r_met	l_upa	l_elb_l	l_elb_m	l_low	l_wri_l	l_wri_m	l_met
	X1	Y1	Z1	X2	Y2	Z2	X3	Y3	Z3	X4	Y4	Z4	X5	Y5	Z5	X6	Y6	Z6	X7	Y7	Z7	X8	Y8	Z8	X9	Y9	Z9	X10	Y10	Z10	X11	Y11	Z11	X12	Y12	Z12	X13	Y13	Z13	X14	Y14	Z14	X15	Y15	Z15	X16	Y16	Z16	X17	Y17	Z17	X18	Y18	Z18
8105	32.41600	440.97177	1418.93970	122.88976	524.21710	1351.79968	286.33548	472.42853	1369.54932	-78.86350	579.98059	1303.89648	88.23711	543.18610	1138.99976	319.85654	574.18188	1041.01807	325.59641	516.28131	1020.43274	239.37549	555.43512	903.60266	308.60834	635.70947	828.65503	331.01443	608.18329	812.01038	261.43976	620.73138	745.26764	354.49353	460.57455	1156.42932	-143.25148	468.15598	1075.71191	-160.77876	403.45828	1042.62915	-88.95963	455.82370	929.20575	-169.85883	546.19031	861.02405	-124.02486	489.64215	838.04187	-165.42317	585.04578	788.24286	-144.00156
8106	32.42000	440.97043	1418.92883	122.89707	524.21094	1351.78992	286.33875	472.43341	1369.55212	-78.86025	580.01697	1303.89685	88.30091	543.16248	1138.95398	319.81375	574.16077	1041.00305	325.58090	516.27869	1020.42578	239.34767	555.42114	903.58917	308.58038	635.70404	828.64679	330.97723	608.17377	812.00659	261.39551	620.73444	745.26465	354.46133	460.56595	1156.44006	-143.25313	468.14621	1075.71301	-160.78242	403.44464	1042.63721	-88.97289	455.80161	929.21069	-169.87128	546.16083	861.01733	-124.03277	489.61496	838.04657	-165.43707	585.01172	788.23688	-144.00317
8107	32.42400	440.96414	1418.91736	122.89327	524.20563	1351.78198	286.34186	472.43924	1369.55396	-78.86252	580.05493	1303.90430	88.36716	543.18109	1138.98218	319.84415	574.14368	1040.99268	325.56250	516.27875	1020.41553	239.30583	555.40656	903.57294	308.55185	635.69965	828.63593	330.93555	608.16406	812.00403	261.35376	620.74048	745.26001	354.42480	460.56442	1156.44653	-143.25836	468.13678	1075.71130	-160.78673	403.43854	1042.63159	-88.98743	455.78323	929.21619	-169.88348	546.13336	861.00928	-124.04345	489.58719	838.04895	-165.45508	584.97717	788.22925	-144.00934
8108	32.42800	440.96158	1418.91492	122.89292	524.19696	1351.77368	286.34427	472.44293	1369.55005	-78.86377	579.98743	1303.90137	88.27955	543.17023	1138.95520	319.81348	574.17126	1040.91077	325.59894	516.26672	1020.41699	239.27856	555.39093	903.56018	308.52026	635.68866	828.62701	330.89798	608.15594	811.99658	261.31335	620.73969	745.26050	354.38965	460.56122	1156.44995	-143.26204	468.13263	1075.70886	-160.78584	403.42899	1042.63208	-89.00145	455.76361	929.22705	-169.89586	546.10199	861.00494	-124.04956	489.55869	838.05273	-165.46164	584.94299	788.21185	-144.02037
8109	32.43200	440.95731	1418.91443	122.89568	524.18878	1351.76953	286.34732	472.44580	1369.54810	-78.85526	580.01007	1303.89880	88.31515	543.12543	1138.88452	319.74493	574.21698	1040.80615	325.64722	516.23688	1020.42651	239.27522	555.37543	903.55048	308.49176	635.67804	828.62299	330.86215	608.14984	811.98981	261.27777	620.73389	745.26312	354.36386	460.55075	1156.45227	-143.26190	468.12500	1075.71033	-160.79080	403.42023	1042.63611	-89.00797	455.74475	929.23639	-169.90732	546.08295	861.00244	-124.05376	489.54150	838.05359	-165.47023	584.91467	788.20270	-144.03000
8110	32.43600	440.95303	1418.90784	122.88934	524.18390	1351.76331	286.35242	472.45618	1369.55042	-78.84965	580.05536	1303.90613	88.38532	543.10089	1138.85486	319.70386	574.11328	1040.90405	325.53500	516.22278	1020.42841	239.25670	555.36078	903.54028	308.46146	635.67084	828.61664	330.82416	608.14551	811.98218	261.24149	620.73120	745.26532	354.33508	460.54803	1156.45630	-143.26329	468.12119	1075.70483	-160.79559	403.41260	1042.64453	-89.01587	455.73596	929.23376	-169.91628	546.06445	860.99878	-124.05633	489.52911	838.05109	-165.48863	584.89020	788.19519	-144.03787
8111	32.44000	440.95004	1418.90955	122.88987	524.17944	1351.75232	286.35495	472.46130	1369.55408	-78.85534	580.03064	1303.89624	88.36451	543.09393	1138.84509	319.68781	574.11768	1040.84790	325.54269	516.20386	1020.43414	239.22836	555.34131	903.53436	308.42792	635.67340	828.61090	330.78616	608.14160	811.97009	261.20502	620.71985	745.27252	354.30869	460.55200	1156.45813	-143.26700	468.11853	1075.70618	-160.79765	403.41016	1042.65527	-89.02439	455.72998	929.23364	-169.92702	546.04767	860.99744	-124.05959	489.51208	838.05597	-165.50447	584.87067	788.18298	-144.03940
8112	32.44400	440.94266	1418.90906	122.87724	524.17053	1351.74170	286.35251	472.47208	1369.55054	-78.85672	580.09827	1303.90723	88.47355	543.09045	1138.83728	319.68610	574.14819	1040.76221	325.58444	516.17114	1020.44250	239.22012	555.32458	903.52930	308.39349	635.67438	828.60651	330.74182	608.13940	811.95532	261.16455	620.70764	745.28406	354.28577	460.55469	1156.46179	-143.27037	468.11896	1075.71790	-160.81000	403.40805	1042.66028	-89.02793	455.72406	929.23541	-169.93436	546.03796	860.99860	-124.06674	489.49274	838.06335	-165.52118	584.85577	788.17670	-144.04469
8113	32.44800	440.93365	1418.91016	122.86405	524.16199	1351.73169	286.36032	472.48163	1369.54309	-78.85239	580.07764	1303.90552	88.44443	543.08057	1138.84021	319.69012	574.04364	1040.87073	325.47333	516.15619	1020.43988	239.19281	555.31073	903.52100	308.35944	635.67291	828.60205	330.69519	608.13934	811.93805	261.11969	620.70074	745.28821	354.25766	460.55914	1156.46313	-143.27414	468.11938	1075.72266	-160.81473	403.39978	1042.66077	-89.04385	455.72266	929.23621	-169.94363	546.03003	860.99597	-124.07414	489.47678	838.06543	-165.53110	584.84430	788.16687	-144.04926
8114	32.45200	440.93314	1418.90820	122.86397	524.14728	1351.72046	286.35648	472.48428	1369.54871	-78.85506	580.02625	1303.88977	88.37081	543.05884	1138.83167	319.68396	573.99554	1040.88208	325.42557	516.13800	1020.44128	239.17290	555.29321	903.51489	308.32742	635.66779	828.59235	330.65488	608.13593	811.93292	261.07394	620.70056	745.28992	354.21436	460.55890	1156.46008	-143.27216	468.11954	1075.72644	-160.81416	403.38928	1042.66895	-89.04758	455.72772	929.23865	-169.95273	546.02008	860.99146	-124.07711	489.46964	838.07025	-165.53339	584.82874	788.15826	-144.05452
8115	32.45600	440.92944	1418.90698	122.86395	524.13318	1351.70813	286.36157	472.49594	1369.54956	-78.85420	580.08936	1303.88904	88.48137	543.02466	1138.79932	319.65942	573.96448	1040.86780	325.40347	516.13171	1020.42487	239.14558	555.27527	903.50323	308.29645	635.66498	828.57898	330.60965	608.12952	811.93268	261.03265	620.70624	745.27997	354.16214	460.56668	1156.45239	-143.27589	468.12018	1075.72827	-160.81587	403.38666	1042.67761	-89.06348	455.73199	929.23846	-169.96410	546.00745	860.98560	-124.07903	489.46530	838.07611	-165.53993	584.82330	788.15271	-144.04691
8116	32.46000	440.92700	1418.90430	122.86683	524.11237	1351.69788	286.36804	472.50690	1369.55212	-78.85274	580.10938	1303.88196	88.52470	542.99115	1138.76379	319.63492	573.94019	1040.85754	325.38483	516.12030	1020.41266	239.11751	555.25592	903.48743	308.26450	635.65558	828.56622	330.56525	608.12537	811.92041	260.99420	620.69977	745.27118	354.12646	460.57959	1156.45667	-143.27557	468.12723	1075.72827	-160.81519	403.38113	1042.68762	-89.07697	455.73126	929.23730	-169.97009	546.00146	860.97955	-124.08122	489.46002	838.07471	-165.54805	584.81549	788.14594	-144.04385
8117	32.46400	440.92447	1418.90222	122.86907	524.10217	1351.68640	286.37570	472.51166	1369.55518	-78.85678	580.07928	1303.87415	88.48346	542.95923	1138.74573	319.62823	573.92535	1040.84106	325.36716	516.10602	1020.40173	239.09000	555.24194	903.47375	308.23535	635.63757	828.55579	330.52435	608.11871	811.90570	260.95822	620.67828	745.27350	354.10327	460.58591	1156.46753	-143.28552	468.13345	1075.72961	-160.81512	403.38693	1042.68726	-89.08424	455.73889	929.23712	-169.97090	546.00000	860.97968	-124.07779	489.46191	838.07434	-165.55562	584.80750	788.14612	-144.04994
8118	32.46800	440.91583	1418.89441	122.86771	524.08954	1351.67297	286.38089	472.51566	1369.55542	-78.85440	579.99445	1303.86133	88.35133	542.92712	1138.72632	319.61740	573.96619	1040.75171	325.40555	516.08069	1020.39551	239.06982	555.23138	903.46338	308.20889	635.62195	828.54901	330.48221	608.11108	811.89740	260.92322	620.65918	745.27100	354.07590	460.59097	1156.48303	-143.29161	468.24097	1075.64856	-160.62343	403.39066	1042.68542	-89.09984	455.74484	929.24243	-169.97337	546.00031	860.98419	-124.07648	489.46786	838.07672	-165.55682	584.80627	788.14642	-144.05423
8119	32.47200	440.91208	1418.88525	122.86620	524.07471	1351.66565	286.39059	472.52454	1369.55127	-78.85725	580.00946	1303.86792	88.38054	542.89764	1138.70435	319.60718	574.01349	1040.64893	325.45630	516.04547	1020.40277	239.07330	555.21979	903.45551	308.18481	635.61584	828.54297	330.44113	608.09955	811.89154	260.88947	620.64722	745.27148	354.04480	460.60013	1156.48572	-143.29219	468.37430	1075.55225	-160.38313	403.40228	1042.68774	-89.09496	455.75229	929.24835	-169.97871	546.00293	860.98792	-124.07462	489.47763	838.07422	-165.55515	584.81378	788.14679	-144.04240
8120	32.47600	440.90930	1418.87585	122.86311	524.06360	1351.65918	286.39743	472.53479	1369.55713	-78.85617	580.05341	1303.87622	88.45390	542.86926	1138.69836	319.60342	573.90375	1040.76794	325.34503	516.00995	1020.41187	239.08247	555.20886	903.44714	308.15869	635.61334	828.53912	330.40356	608.09302	811.88721	260.85315	620.63037	745.28131	354.00958	460.60544	1156.48608	-143.29106	468.20358	1075.69604	-160.71664	403.40710	1042.69800	-89.09139	455.76306	929.25073	-169.97916	546.00946	860.99469	-124.06966	489.48749	838.07672	-165.55789	584.82098	788.14990	-144.03549
8121	32.48000	440.89972	1418.87830	122.86061	524.05347	1351.64856	286.39294	472.54550	1369.56055	-78.85540	580.02228	1303.88135	88.40456	542.84009	1138.67932	319.58585	573.91571	1040.71375	325.35086	515.98016	1020.42792	239.07672	555.19531	903.43970	308.13519	635.60339	828.53143	330.36176	608.08740	811.87769	260.81171	620.61133	745.27808	353.97342	460.62103	1156.47900	-143.28984	468.16528	1075.73169	-160.80443	403.41531	1042.69727	-89.10450	455.77032	929.25537	-169.98061	546.02209	861.00006	-124.06690	489.49600	838.08008	-165.55254	584.83282	788.15887	-144.02948
8122	32.48400	440.89127	1418.87830	122.86102	524.04224	1351.64185	286.39612	472.55515	1369.56506	-78.85599	580.09589	1303.89111	88.51701	542.81165	1138.65918	319.58353	574.01996	1040.53613	325.43381	515.97357	1020.41754	239.04645	555.18494	903.42865	308.11115	635.59784	828.51471	330.31711	608.07227	811.86719	260.77615	620.60175	745.26221	353.93262	460.63751	1156.47864	-143.29599	468.16208	1075.74695	-160.82826	403.41214	1042.69604	-89.10968	455.78131	929.25708	-169.98334	546.03467	861.00342	-124.06471	489.50726	838.08008	-165.54817	584.84601	788.16876	-144.01981
8123	32.48800	440.89062	1418.87048	122.86967	524.02997	1351.63525	286.39545	472.56711	1369.56421	-78.85934	580.11066	1303.88977	88.54227	542.78851	1138.63660	319.57574	573.98297	1040.55078	325.37918	515.97235	1020.39075	239.00452	555.17389	903.41821	308.08478	635.59375	828.49823	330.27191	608.06232	811.84985	260.73584	620.59540	745.24689	353.88541	460.65335	1156.47778	-143.30621	468.17111	1075.75073	-160.83003	403.42084	1042.69202	-89.12322	455.79514	929.25616	-169.98721	546.04791	861.00708	-124.06516	489.52383	838.07239	-165.54637	584.86841	788.16858	-144.00919
8124	32.49200	440.88733	1418.87000	122.86629	524.02051	1351.62207	286.39395	472.57526	1369.55798	-78.87038	580.07251	1303.88831	88.49229	542.76843	1138.60950	319.57608	573.85083	1040.69080	325.25113	515.97211	1020.36346	238.96877	555.16119	903.40454	308.05032	635.58282	828.48126	330.22424	608.40253	811.92114	260.34586	620.59363	745.22211	353.83228	460.67441	1156.46887	-143.30840	468.17242	1075.75818	-160.84737	403.42874	1042.68799	-89.13526	455.81137	929.24969	-169.98831	546.06384	860.99634	-124.06337	489.53976	838.06836	-165.54465	584.88873	788.16821	-144.00529
8125	32.49600	440.88422	1418.86499	122.86307	524.01178	1351.61206	286.39362	472.58258	1369.55640	-78.87558	579.98218	1303.85938	88.35224	542.74908	1138.58691	319.56531	573.86450	1040.63879	325.25311	515.97064	1020.34021	238.93733	555.15051	903.39124	308.02087	635.56879	828.46985	330.17825	609.19128	812.09387	259.52423	620.58905	745.19696	353.77716	460.69186	1156.46411	-143.30182	468.17404	1075.76855	-160.87546	403.43762	1042.68396	-89.13837	455.82971	929.23834	-169.98950	546.08002	860.99078	-124.06179	489.56128	838.06525	-165.54207	584.90918	788.17413	-144.00130
